<svg xmlns="http://www.w3.org/2000/svg" xmlns:xlink="http://www.w3.org/1999/xlink" width="20" height="18" viewBox="0 0 20 18">
    <defs>
        <path id="a" d="M3.948 4.2L9.162 0H10.2v16.8H9.162l-5.214-4.2H1.8A1.8 1.8 0 0 1 0 10.8V6a1.8 1.8 0 0 1 1.8-1.8h2.148zM1.2 10.8a.6.6 0 0 0 .6.6h1.8v-6H1.8a.6.6 0 0 0-.6.6v4.8zM9 15.126V1.674L4.8 5.058v6.684L9 15.126zM16.2 6v6H15V6h1.2zm-3.6 2.4h1.2V12h-1.2V8.4zm4.8-4.8h1.2V12h-1.2V3.6z"/>
    </defs>
    <g fill="none" fill-rule="evenodd" transform="translate(.55 .75)">
        <mask id="b" fill="#fff">
            <use xlink:href="#a"/>
        </mask>
        <use fill="#242424" fill-rule="nonzero" xlink:href="#a"/>
        <g fill="#272727" mask="url(#b)">
            <path d="M-1.867-3.6h24v24h-24z"/>
        </g>
    </g>
</svg>
