<svg xmlns="http://www.w3.org/2000/svg" xmlns:xlink="http://www.w3.org/1999/xlink" width="38" height="32" viewBox="0 0 38 32">
    <defs>
        <path id="a" d="M19.441 8.651a1.907 1.907 0 0 1 0 2.698L11.35 19.44a1.907 1.907 0 0 1-2.698 0L.56 11.35a1.907 1.907 0 0 1 0-2.698L8.65.56a1.907 1.907 0 0 1 2.698 0L19.44 8.65zm-.674.675l-8.093-8.093A.954.954 0 0 0 9.41 1.16l-.083.074-8.093 8.093a.954.954 0 0 0-.074 1.265l.074.083 8.093 8.093a.954.954 0 0 0 1.265.074l.083-.074 8.093-8.093a.954.954 0 0 0 .074-1.265l-.074-.083zm-7.418-.675A1.907 1.907 0 1 1 8.65 11.35 1.907 1.907 0 0 1 11.35 8.65zm-.675-4.72a.954.954 0 1 1-1.348 1.348.954.954 0 0 1 1.348-1.348zm5.395 5.395a.954.954 0 1 1-1.348 1.348.954.954 0 0 1 1.348-1.348zm-10.79 0a.954.954 0 1 1-1.348 1.348.954.954 0 0 1 1.348-1.348zm5.395 5.395a.954.954 0 1 1-1.348 1.348.954.954 0 0 1 1.348-1.348z"/>
    </defs>
    <g fill="none" fill-rule="evenodd">
        <path fill="#FFF" d="M-1-496h480v600H-1z"/>
        <path fill="#3A3A3A" d="M-1-464h40v568H-1z"/>
        <path fill="#3A3A3A" d="M0 0h38v32H0z"/>
        <g transform="translate(9 6)">
            <mask id="b" fill="#fff">
                <use xlink:href="#a"/>
            </mask>
            <use fill="#242424" xlink:href="#a"/>
            <g fill="#BEBEBE" mask="url(#b)">
                <path d="M-2-2h25v25H-2z"/>
            </g>
        </g>
    </g>
</svg>
