<svg xmlns="http://www.w3.org/2000/svg" xmlns:xlink="http://www.w3.org/1999/xlink" width="27" height="26" viewBox="0 0 27 26">
    <defs>
        <path id="a" d="M12.056 19.969H7.913l-.525-2.634a7.707 7.707 0 0 1-.767-.318L4.368 18.51 1.46 15.6l1.485-2.228a7.913 7.913 0 0 1-.318-.768L0 12.056V7.913l2.633-.525c.093-.26.199-.517.319-.767L1.46 4.368 4.368 1.46l2.228 1.485c.25-.12.506-.226.767-.318L7.913 0h4.143l.524 2.633c.262.093.518.199.768.319L15.6 1.46l2.933 2.933-1.486 2.228c.12.25.226.506.319.767L20 7.913v4.143l-2.627.524a7.807 7.807 0 0 1-.318.768l1.454 2.253-2.908 2.908-2.228-1.486c-.25.12-.506.226-.768.319l-.549 2.627zm-3.12-1.248h2.097l.468-2.353.362-.106a6.54 6.54 0 0 0 1.248-.505l.33-.181 1.997 1.329 1.486-1.485-1.323-1.997.18-.331c.212-.397.381-.816.506-1.248l.106-.362 2.328-.45V8.937l-2.353-.468-.106-.356a6.527 6.527 0 0 0-.505-1.248l-.156-.318 1.329-1.997-1.51-1.485-1.991 1.304-.324-.15a6.552 6.552 0 0 0-1.249-.505l-.361-.106-.462-2.359H8.936l-.468 2.353-.356.106a6.54 6.54 0 0 0-1.248.505l-.33.181-1.997-1.329-1.473 1.485 1.304 1.997-.18.33c-.212.398-.381.816-.506 1.249l-.106.362-2.328.449v2.097l2.353.468.106.362c.125.432.294.85.505 1.248l.181.33-1.329 1.997 1.485 1.486L6.54 15.6l.332.18c.397.211.815.38 1.248.506l.361.106.456 2.328zm1.048-4.992a3.744 3.744 0 1 1 0-7.489 3.744 3.744 0 0 1 0 7.489zm0-6.24a2.496 2.496 0 1 0 0 4.991 2.496 2.496 0 0 0 0-4.992z"/>
    </defs>
    <g fill="none" fill-rule="evenodd" transform="translate(3 3)">
        <mask id="b" fill="#fff">
            <use xlink:href="#a"/>
        </mask>
        <use fill="#242424" fill-rule="nonzero" xlink:href="#a"/>
        <g fill="#272727" mask="url(#b)">
            <path d="M-5.4-6.2h32v33h-32z"/>
        </g>
    </g>
</svg>
