<svg xmlns="http://www.w3.org/2000/svg" xmlns:xlink="http://www.w3.org/1999/xlink" width="22" height="23" viewBox="0 0 22 23">
    <defs>
        <path id="a" d="M11.759 10.62h4.4a2.276 2.276 0 0 1 2.275 2.277v2.48h-1.517v-2.48a.759.759 0 0 0-.758-.76H5.689a.759.759 0 0 0-.758.76v2.48H3.414v-2.48A2.276 2.276 0 0 1 5.69 10.62h4.551V7.13h1.518v3.49zm3.38-2.73h-8.43V.303h8.43V7.89zM8.395 6.372h5.058V1.821H8.395v4.551zm-.05 15.78H0v-7.586h8.345v7.586zm-6.828-1.518h5.31v-4.551h-5.31v4.551zm20.331 1.518h-8.345v-7.586h8.345v7.586zm-6.827-1.518h5.31v-4.551h-5.31v4.551z"/>
    </defs>
    <g fill="none" fill-rule="evenodd">
        <mask id="b" fill="#fff">
            <use xlink:href="#a"/>
        </mask>
        <use fill="#242424" fill-rule="nonzero" xlink:href="#a"/>
        <g fill="#242424" mask="url(#b)">
            <path d="M-3.3-3.3h29v29h-29z"/>
        </g>
    </g>
</svg>
