<?xml version="1.0" encoding="UTF-8"?>
<svg width="12px" height="14px" viewBox="0 0 12 14" version="1.1" xmlns="http://www.w3.org/2000/svg" xmlns:xlink="http://www.w3.org/1999/xlink">
    <!-- Generator: sketchtool 60 (101010) - https://sketch.com -->
    <title>BB7F031B-0303-4D7F-9931-E204C17D5B13</title>
    <desc>Created with sketchtool.</desc>
    <defs>
        <path d="M8.284,2 L7.6,0 L4.4,0 L3.684,2 L0,2 L0,2.8 L1.2,2.8 L1.2,11.6 C1.2,12.2627417 1.7372583,12.8 2.4,12.8 L9.6,12.8 C10.2627417,12.8 10.8,12.2627417 10.8,11.6 L10.8,2.8 L12,2.8 L12,2 L8.284,2 Z M4.948,0.8 L7.02,0.8 L7.42,2 L4.528,2 L4.948,0.8 Z M10,11.6 C10,11.8209139 9.8209139,12 9.6,12 L2.4,12 C2.1790861,12 2,11.8209139 2,11.6 L2,2.8 L10,2.8 L10,11.6 Z M4.8,9.6 L4,9.6 L4,4.8 L4.8,4.8 L4.8,9.6 Z M8,9.6 L7.2,9.6 L7.2,4.8 L8,4.8 L8,9.6 Z" id="path-1"></path>
    </defs>
    <g id="♦️--Symbols" stroke="none" stroke-width="1" fill="none" fill-rule="evenodd">
        <g id="icon-/-d-/-Delete" transform="translate(-2.000000, -1.000000)">
            <g id="Delete" transform="translate(2.000000, 1.600000)">
                <mask id="mask-2" fill="white">
                    <use xlink:href="#path-1"></use>
                </mask>
                <use id="Mask" fill="#FFFFFF" fill-rule="nonzero" xlink:href="#path-1"></use>
            </g>
        </g>
    </g>
</svg>