<svg xmlns="http://www.w3.org/2000/svg" xmlns:xlink="http://www.w3.org/1999/xlink" width="19" height="17" viewBox="0 0 19 17">
    <defs>
        <path id="prefix__a" d="M3.784 4.025H1.725C.772 4.025 0 4.797 0 5.75v4.6c0 .953.772 1.725 1.725 1.725h2.059L8.78 16.1h1.57V0H8.78L3.784 4.025zM1.15 10.35v-4.6c0-.318.257-.575.575-.575H3.45v5.75H1.725c-.318 0-.575-.257-.575-.575zm8.05 4.6l-4.6-3.697V4.847L9.2 1.15v13.8zm8.05-6.9c.004 2.288-.922 4.48-2.564 6.072l-.805-.822c1.418-1.379 2.218-3.272 2.218-5.25 0-1.978-.8-3.871-2.218-5.25l.805-.822c1.642 1.592 2.568 3.784 2.564 6.072zm-2.875 0c.003 1.42-.562 2.782-1.57 3.784l-.81-.811c.788-.789 1.231-1.858 1.231-2.973 0-1.115-.443-2.184-1.231-2.973l.81-.81c1.008 1 1.573 2.363 1.57 3.783z"/>
    </defs>
    <g fill="none" fill-rule="evenodd" transform="translate(.875 .45)">
        <mask id="prefix__b" fill="#fff">
            <use xlink:href="#prefix__a"/>
        </mask>
        <use fill="#242424" fill-rule="nonzero" xlink:href="#prefix__a"/>
        <g fill="#242424" mask="url(#prefix__b)">
            <path d="M0 0H23V23H0z" transform="translate(-2.875 -3.45)"/>
        </g>
    </g>
</svg>
