<?xml version="1.0" encoding="UTF-8"?>
<svg width="220px" height="54px" viewBox="0 0 220 54" version="1.1" xmlns="http://www.w3.org/2000/svg" xmlns:xlink="http://www.w3.org/1999/xlink">
    <!-- Generator: sketchtool 60 (101010) - https://sketch.com -->
    <title>23CBD7D8-6563-4C66-9C80-D49BC7FD54B5</title>
    <desc>Created with sketchtool.</desc>
    <defs>
        <path d="M10.0051178,7.77423003 L10.7384511,8.07712858 C10.0565342,9.7377941 8.50205894,10.8767166 6.71308877,11.0264039 L6.71308877,11.0264039 L6.71308877,12.2220561 L9.10439312,12.2220561 L9.10439312,13.0191576 L3.52468297,13.0191576 L3.52468297,12.2220561 L5.91598732,12.2220561 L5.91598732,11.0064764 C5.19926184,10.9494322 4.50521296,10.7285365 3.88736413,10.3608242 L3.88736413,10.3608242 L4.49714674,9.79089669 C5.05891096,10.0809553 5.68231268,10.2313373 6.31453804,10.2293025 C7.92832416,10.2336039 9.38542742,9.26429982 10.0051178,7.77423003 L10.0051178,7.77423003 Z M9.14125906,5.49056427 L9.14125906,6.25578166 C9.14125906,7.79657607 7.8921984,9.04563673 6.35140399,9.04563673 C6.05915852,9.04956274 5.76827617,9.00512238 5.49053442,8.91411499 L5.49053442,8.91411499 L6.19995471,8.24853528 C6.25035976,8.25250496 6.30099893,8.25250496 6.35140399,8.24853528 C6.87991511,8.24853528 7.38677979,8.03858505 7.76049359,7.66487126 C8.13420738,7.29115746 8.34415761,6.78429278 8.34415761,6.25578166 L8.34415761,6.25578166 L8.34415761,6.23585412 L9.14125906,5.49056427 Z M11.832971,0.107608654 L8.91557971,2.83768112 L8.91557971,2.78985503 C8.91557969,1.24906064 7.66651903,-1.77635684e-15 6.12572464,-1.77635684e-15 C4.58493024,-1.77635684e-15 3.33586959,1.24906064 3.33586957,2.78985503 L3.33586957,5.97826083 C3.33639877,6.54971959 3.51468413,7.10686134 3.84601449,7.57246373 L2.96521739,8.39746373 C2.74980212,8.11887819 2.57161083,7.81340741 2.43514493,7.48876807 L1.70181159,7.79166663 C1.87430048,8.20543702 2.10368645,8.59311273 2.38333333,8.94347822 L7.28306304e-14,11.1594202 L0.546014493,11.7612318 L12.375,0.689492712 L11.832971,0.107608654 Z M8.11847826,3.58695648 L4.43586957,7.03442025 C4.23792567,6.71770776 4.13297101,6.35174254 4.13297101,5.97826083 L4.13297101,2.78985503 C4.13297101,1.68928759 5.0251572,0.797101408 6.12572464,0.797101408 C7.22629207,0.797101408 8.11847826,1.68928759 8.11847826,2.78985503 L8.11847826,3.58695648 Z" id="path-1"></path>
    </defs>
    <g id="♦️--Symbols" stroke="none" stroke-width="1" fill="none" fill-rule="evenodd">
        <g id="component-/-microphones-/-zones">
            <g id="component-/-audio-/-zones" transform="translate(0.000000, 1.000000)">
                <rect id="Rectangle" fill="#F3F3F3" x="0" y="10" width="440" height="42"></rect>
                <line x1="0" y1="52.25" x2="440" y2="52.25" id="Line-8" stroke="#F3F3F3" stroke-width="2" stroke-linecap="square"></line>
                <polygon id="zone-1" fill="#525252" opacity="0.45" points="0 10 220 10 220 14 0 52"></polygon>
                <g id="icon-/-microphone-/-muted" transform="translate(10.000000, 20.000000)">
                    <g id="mic-mute-active" transform="translate(2.812500, 2.812500)">
                        <mask id="mask-2" fill="white">
                            <use xlink:href="#path-1"></use>
                        </mask>
                        <use id="Combined-Shape" fill="#242424" fill-rule="nonzero" xlink:href="#path-1"></use>
                        <g id="Color-/-Gray-90" mask="url(#mask-2)" fill="#272727">
                            <g transform="translate(-6.187500, -6.960938)" id="Rectangle">
                                <rect x="0" y="0" width="24.75" height="24.75"></rect>
                            </g>
                        </g>
                    </g>
                </g>
                <g id="Component-/-microphones-/-beam-base" fill="#F3F3F3">
                    <path d="M220,0 C231.611942,0 241.29779,8.24658657 243.520455,19.2026707 L440,53 L0,53 L196.490156,19.1506653 C198.732878,8.2205009 208.406439,0 220,0 Z"></path>
                </g>
            </g>
        </g>
    </g>
</svg>