<svg xmlns="http://www.w3.org/2000/svg" width="14" height="10" viewBox="0 0 14 10">
    <g fill="none" fill-rule="evenodd">
        <path fill="#272727" d="M6.999 7.877c-.464 0-.91.184-1.238.512l1.238 1.238 1.238-1.238a1.75 1.75 0 0 0-1.238-.512zM10.083 6.512a4.406 4.406 0 0 0-6.168 0l.616.617a3.526 3.526 0 0 1 4.94 0l.612-.617z"/>
        <path fill="#272727" d="M11.934 4.666a7 7 0 0 0-9.874 0l.616.617a6.125 6.125 0 0 1 8.637 0l.62-.617z"/>
        <path fill="#BEBEBE" d="M13.163 3.436a8.706 8.706 0 0 0-12.328 0L.213 2.82a9.581 9.581 0 0 1 13.563 0l-.613.616z"/>
    </g>
</svg>
