<svg xmlns="http://www.w3.org/2000/svg" xmlns:xlink="http://www.w3.org/1999/xlink" width="40" height="40" viewBox="0 0 40 40">
    <defs>
        <path id="prefix__a" d="M18.284.605l.69.74L.69 18.395l-.69-.74 1.999-1.865L2 12h1.5l-.001 2.39 3.663-3.415C7.057 10.67 7 10.341 7 10c0-1.657 1.343-3 3-3 .416 0 .812.085 1.172.237L15.179 3.5 12 3.5V2l4.788-.001L18.284.605zM8 16.5V18H2.788l1.608-1.5H8zM18 12v6h-6v-1.5h4.5V12H18zm-5.278-3.263C12.9 9.121 13 9.549 13 10c0 1.657-1.343 3-3 3-.526 0-1.02-.135-1.45-.373l4.172-3.89zM8 2v1.5H3.5V8H2V2h6zm10 1.814V8h-1.5V5.213l1.5-1.4z"/>
    </defs>
    <g fill="none" fill-rule="evenodd">
        <circle cx="20" cy="20" r="20" fill="#F3F3F3"/>
        <g transform="translate(10 10)">
            <mask id="prefix__b" fill="#fff">
                <use xlink:href="#prefix__a"/>
            </mask>
            <use fill="#000" xlink:href="#prefix__a"/>
            <g fill="#A4A4A4" mask="url(#prefix__b)">
                <path d="M0 0H40V40H0z" transform="translate(-10 -10)"/>
            </g>
        </g>
    </g>
</svg>
