<svg xmlns="http://www.w3.org/2000/svg" xmlns:xlink="http://www.w3.org/1999/xlink" width="40" height="40" viewBox="0 0 40 40">
    <defs>
        <path id="a" d="M12.006 4.237h-1.412V0h1.412v4.237zm7.769-.43l-.982-.982L15.8 5.819l.996.996 2.98-3.008zm-1.412 6.787v1.412H22.6v-1.412h-4.238zm-2.571 6.2l3.001 2.981.982-.982-2.994-2.994-.99.996zM10.594 22.6h1.412v-4.238h-1.412V22.6zm-7.769-3.807l.982.982L6.8 16.781l-.996-.996-2.98 3.008zm1.412-8.2H0v1.413h4.237v-1.412zm2.571-4.788l-3.001-2.98-.982.982L5.819 6.8l.99-.996zm5.799 10.99c-.156.035-.318.063-.474.091a5.65 5.65 0 1 1 0-11.172c.163 0 .318.049.474.091h.049c.155.036.304.078.452.128h.035a5.65 5.65 0 0 1 2.733 2.02c.092.126.177.254.255.38v.043a3.7 3.7 0 0 1 .205.382l.035.077c.056.12.113.247.162.374l.05.128c.042.113.085.233.113.353.028.12 0 .12.05.183.049.064.056.212.07.318.014.106 0 .184.042.276.043.091 0 .162 0 .247V12.049c0 .084 0 .183-.042.275-.043.092-.05.212-.07.318-.022.106 0 .12-.05.184-.05.063-.078.233-.113.353l-.043.127c-.05.127-.106.247-.162.374l-.035.078a7.261 7.261 0 0 1-.205.381v.043a3.579 3.579 0 0 1-.254.38 5.65 5.65 0 0 1-2.734 2.02h-.035c-.148.05-.297.093-.452.128l-.056.085zM11.3 15.537V7.063a4.237 4.237 0 1 0 0 8.476z"/>
    </defs>
    <g fill="none" fill-rule="evenodd">
        <circle cx="20" cy="20" r="20" fill="#F3F3F3" opacity=".75"/>
        <g transform="translate(9 9)">
            <mask id="b" fill="#fff">
                <use xlink:href="#a"/>
            </mask>
            <use fill="#242424" fill-rule="nonzero" xlink:href="#a"/>
            <g fill="#242424" mask="url(#b)">
                <path d="M-5.2-5.2h32v32h-32z"/>
            </g>
        </g>
    </g>
</svg>
