<svg xmlns="http://www.w3.org/2000/svg" width="20" height="20" viewBox="0 0 20 20">
    <g fill="none" fill-rule="evenodd">
        <path fill="#242424" fill-rule="nonzero" d="M2.345 2.345C4.96-.271 9.174-.36 11.895 2.146c2.672 2.458 2.975 6.553.729 9.373l-.133.162 6.072 6.066-.816.816-6.066-6.072c-2.824 2.39-7.03 2.127-9.535-.595C-.359 9.174-.27 4.96 2.345 2.345zM7.23 1.48c-3.176 0-5.75 2.574-5.75 5.75s2.574 5.75 5.75 5.75c1.525 0 2.988-.606 4.066-1.684 1.078-1.078 1.684-2.54 1.684-4.066 0-3.176-2.574-5.75-5.75-5.75z" transform="translate(.3 .3)"/>
        <path stroke="#242424" stroke-width=".775" d="M7.223 2.641L7.223 7.777 7.223 11.446" transform="translate(.3 .3) rotate(90 7.223 7.044)"/>
    </g>
</svg>
